BioRhyme-Light.ufo
<glyph name="exclam" format="1">
  <advance width="193"/>
  <unicode hex="0021"/>
  <outline>
    <contour>
      <point x="104" y="148" type="line"/>
      <point x="108" y="272" type="line" smooth="yes"/>
      <point x="113" y="423"/>
      <point x="124" y="524"/>
      <point x="124" y="542" type="curve"/>
      <point x="124" y="559"/>
      <point x="115" y="573"/>
      <point x="97" y="573" type="curve"/>
      <point x="78" y="573"/>
      <point x="69" y="559"/>
      <point x="69" y="542" type="curve"/>
      <point x="69" y="524"/>
      <point x="80" y="424"/>
      <point x="85" y="272" type="curve" smooth="yes"/>
      <point x="89" y="148" type="line"/>
    </contour>
    <contour>
      <point x="73" y="55"/>
      <point x="55" y="41"/>
      <point x="55" y="22" type="curve"/>
      <point x="55" y="4"/>
      <point x="73" y="-10"/>
      <point x="96" y="-10" type="curve"/>
      <point x="121" y="-10"/>
      <point x="138" y="4"/>
      <point x="138" y="22" type="curve"/>
      <point x="138" y="41"/>
      <point x="121" y="55"/>
      <point x="96" y="55" type="curve"/>
    </contour>
  </outline>
</glyph>
<glyph name="percent" format="1">
  <advance width="695"/>
  <unicode hex="0025"/>
  <outline>
    <contour>
      <point x="605" y="487" type="line"/>
      <point x="589" y="502" type="line"/>
      <point x="89" y="-10" type="line"/>
      <point x="105" y="-25" type="line"/>
    </contour>
    <contour>
      <point x="232" y="239"/>
      <point x="296" y="287"/>
      <point x="296" y="364" type="curve" smooth="yes"/>
      <point x="296" y="438"/>
      <point x="232" y="490"/>
      <point x="168" y="490" type="curve" smooth="yes"/>
      <point x="104" y="490"/>
      <point x="40" y="442"/>
      <point x="40" y="365" type="curve" smooth="yes"/>
      <point x="40" y="291"/>
      <point x="104" y="239"/>
      <point x="168" y="239" type="curve" smooth="yes"/>
    </contour>
    <contour>
      <point x="115" y="261"/>
      <point x="63" y="305"/>
      <point x="63" y="365" type="curve" smooth="yes"/>
      <point x="63" y="427"/>
      <point x="115" y="468"/>
      <point x="168" y="468" type="curve" smooth="yes"/>
      <point x="221" y="468"/>
      <point x="273" y="424"/>
      <point x="273" y="364" type="curve" smooth="yes"/>
      <point x="273" y="302"/>
      <point x="221" y="261"/>
      <point x="168" y="261" type="curve" smooth="yes"/>
    </contour>
    <contour>
      <point x="591" y="-13"/>
      <point x="655" y="35"/>
      <point x="655" y="112" type="curve" smooth="yes"/>
      <point x="655" y="186"/>
      <point x="591" y="238"/>
      <point x="527" y="238" type="curve" smooth="yes"/>
      <point x="463" y="238"/>
      <point x="399" y="190"/>
      <point x="399" y="113" type="curve" smooth="yes"/>
      <point x="399" y="39"/>
      <point x="463" y="-13"/>
      <point x="527" y="-13" type="curve" smooth="yes"/>
    </contour>
    <contour>
      <point x="474" y="9"/>
      <point x="422" y="53"/>
      <point x="422" y="113" type="curve" smooth="yes"/>
      <point x="422" y="175"/>
      <point x="474" y="216"/>
      <point x="527" y="216" type="curve" smooth="yes"/>
      <point x="580" y="216"/>
      <point x="632" y="172"/>
      <point x="632" y="112" type="curve" smooth="yes"/>
      <point x="632" y="50"/>
      <point x="580" y="9"/>
      <point x="527" y="9" type="curve" smooth="yes"/>
    </contour>
  </outline>
</glyph>
<glyph name="one" format="1">
  <advance width="321"/>
  <unicode hex="0031"/>
  <outline>
    <contour>
      <point x="113" y="361"/>
      <point x="180" y="406"/>
      <point x="187" y="475" type="curve"/>
      <point x="170" y="480" type="line"/>
      <point x="163" y="424"/>
      <point x="98" y="381"/>
      <point x="40" y="381" type="curve"/>
      <point x="44" y="356" type="line"/>
    </contour>
    <contour>
      <point x="286" y="0" type="line"/>
      <point x="286" y="23" type="line"/>
      <point x="52" y="23" type="line"/>
      <point x="52" y="0" type="line"/>
    </contour>
    <contour>
      <point x="194" y="0" type="line"/>
      <point x="194" y="480" type="line"/>
      <point x="170" y="480" type="line"/>
      <point x="170" y="0" type="line"/>
    </contour>
  </outline>
</glyph>
<glyph name="four" format="1">
  <advance width="458"/>
  <unicode hex="0034"/>
  <outline>
    <contour>
      <point x="327" y="480" type="line"/>
      <point x="297" y="480" type="line"/>
      <point x="20" y="138" type="line"/>
      <point x="42" y="130" type="line"/>
    </contour>
    <contour>
      <point x="448" y="115" type="line"/>
      <point x="448" y="138" type="line"/>
      <point x="20" y="138" type="line"/>
      <point x="20" y="115" type="line"/>
    </contour>
    <contour>
      <point x="310" y="-10" type="line"/>
      <point x="335" y="-10" type="line"/>
      <point x="335" y="480" type="line"/>
      <point x="310" y="480" type="line"/>
    </contour>
  </outline>
</glyph>
<glyph name="semicolon" format="1">
  <advance width="209"/>
  <unicode hex="003B"/>
  <outline>
    <contour>
      <point x="124" y="-99"/>
      <point x="154" y="-40"/>
      <point x="154" y="3" type="curve" smooth="yes"/>
      <point x="154" y="35"/>
      <point x="135" y="55"/>
      <point x="105" y="55" type="curve" smooth="yes"/>
      <point x="83" y="55"/>
      <point x="65" y="40"/>
      <point x="65" y="21" type="curve" smooth="yes"/>
      <point x="65" y="2"/>
      <point x="83" y="-10"/>
      <point x="102" y="-10" type="curve" smooth="yes"/>
      <point x="115" y="-10"/>
      <point x="122" y="-8"/>
      <point x="133" y="-5" type="curve"/>
      <point x="129" y="-49"/>
      <point x="102" y="-90"/>
      <point x="55" y="-138" type="curve"/>
      <point x="66" y="-150" type="line"/>
    </contour>
    <contour>
      <point x="131" y="300"/>
      <point x="148" y="314"/>
      <point x="148" y="332" type="curve"/>
      <point x="148" y="351"/>
      <point x="131" y="365"/>
      <point x="106" y="365" type="curve"/>
      <point x="83" y="365"/>
      <point x="65" y="351"/>
      <point x="65" y="332" type="curve"/>
      <point x="65" y="314"/>
      <point x="83" y="300"/>
      <point x="106" y="300" type="curve"/>
    </contour>
  </outline>
</glyph>
<glyph name="question" format="1">
  <advance width="382"/>
  <unicode hex="003F"/>
  <outline>
    <contour>
      <point x="172" y="134" type="line"/>
      <point x="158" y="161"/>
      <point x="148" y="181"/>
      <point x="148" y="204" type="curve" smooth="yes"/>
      <point x="148" y="243"/>
      <point x="194" y="264"/>
      <point x="248" y="294" type="curve" smooth="yes"/>
      <point x="302" y="324"/>
      <point x="352" y="356"/>
      <point x="352" y="419" type="curve" smooth="yes"/>
      <point x="352" y="494"/>
      <point x="276" y="530"/>
      <point x="199" y="530" type="curve" smooth="yes"/>
      <point x="129" y="530"/>
      <point x="70" y="512"/>
      <point x="15" y="484" type="curve"/>
      <point x="24" y="460" type="line"/>
      <point x="79" y="488"/>
      <point x="132" y="507"/>
      <point x="199" y="507" type="curve" smooth="yes"/>
      <point x="267" y="507"/>
      <point x="327" y="474"/>
      <point x="327" y="420" type="curve" smooth="yes"/>
      <point x="327" y="371"/>
      <point x="288" y="345"/>
      <point x="238" y="316" type="curve" smooth="yes"/>
      <point x="181" y="283"/>
      <point x="125" y="258"/>
      <point x="125" y="209" type="curve" smooth="yes"/>
      <point x="125" y="186"/>
      <point x="138" y="164"/>
      <point x="159" y="129" type="curve"/>
    </contour>
    <contour>
      <point x="206" y="-10"/>
      <point x="223" y="4"/>
      <point x="223" y="22" type="curve"/>
      <point x="223" y="41"/>
      <point x="206" y="55"/>
      <point x="181" y="55" type="curve"/>
      <point x="158" y="55"/>
      <point x="140" y="41"/>
      <point x="140" y="22" type="curve"/>
      <point x="140" y="4"/>
      <point x="158" y="-10"/>
      <point x="181" y="-10" type="curve"/>
    </contour>
  </outline>
</glyph>
<glyph name="H" format="1">
  <advance width="720"/>
  <unicode hex="0048"/>
  <outline>
    <contour>
      <point x="558" y="252" type="line"/>
      <point x="558" y="275" type="line"/>
      <point x="162" y="275" type="line"/>
      <point x="162" y="252" type="line"/>
    </contour>
    <contour>
      <point x="280" y="0" type="line"/>
      <point x="280" y="23" type="line"/>
      <point x="30" y="23" type="line"/>
      <point x="30" y="0" type="line"/>
    </contour>
    <contour>
      <point x="167" y="13" type="line"/>
      <point x="167" y="509" type="line"/>
      <point x="143" y="509" type="line"/>
      <point x="143" y="13" type="line"/>
    </contour>
    <contour>
      <point x="280" y="497" type="line"/>
      <point x="280" y="520" type="line"/>
      <point x="30" y="520" type="line"/>
      <point x="30" y="497" type="line"/>
    </contour>
    <contour>
      <point x="690" y="0" type="line"/>
      <point x="690" y="23" type="line"/>
      <point x="439" y="23" type="line"/>
      <point x="439" y="0" type="line"/>
    </contour>
    <contour>
      <point x="577" y="13" type="line"/>
      <point x="577" y="509" type="line"/>
      <point x="552" y="509" type="line"/>
      <point x="552" y="13" type="line"/>
    </contour>
    <contour>
      <point x="690" y="497" type="line"/>
      <point x="690" y="520" type="line"/>
      <point x="439" y="520" type="line"/>
      <point x="439" y="497" type="line"/>
    </contour>
    <contour>
      <point x="360" y="245" type="move" name="center"/>
    </contour>
    <contour>
      <point x="360" y="0" type="move" name="bottom"/>
    </contour>
    <contour>
      <point x="360" y="490" type="move" name="top"/>
    </contour>
  </outline>
</glyph>
<glyph name="K" format="1">
  <advance width="647"/>
  <unicode hex="004B"/>
  <outline>
    <contour>
      <point x="583" y="507" type="line"/>
      <point x="550" y="507" type="line"/>
      <point x="155" y="168" type="line"/>
      <point x="155" y="140" type="line"/>
    </contour>
    <contour>
      <point x="281" y="0" type="line" smooth="yes"/>
      <point x="281" y="23" type="line" smooth="yes"/>
      <point x="30" y="23" type="line" smooth="yes"/>
      <point x="30" y="0" type="line" smooth="yes"/>
    </contour>
    <contour>
      <point x="168" y="13" type="line" smooth="yes"/>
      <point x="168" y="507" type="line" smooth="yes"/>
      <point x="143" y="507" type="line" smooth="yes"/>
      <point x="143" y="13" type="line" smooth="yes"/>
    </contour>
    <contour>
      <point x="647" y="0" type="line" smooth="yes"/>
      <point x="647" y="23" type="line" smooth="yes"/>
      <point x="425" y="23" type="line" smooth="yes"/>
      <point x="425" y="0" type="line" smooth="yes"/>
    </contour>
    <contour>
      <point x="569" y="10" type="line"/>
      <point x="326" y="294" type="line"/>
      <point x="310" y="278" type="line"/>
      <point x="540" y="10" type="line"/>
    </contour>
    <contour>
      <point x="281" y="497" type="line" smooth="yes"/>
      <point x="281" y="520" type="line" smooth="yes"/>
      <point x="30" y="520" type="line" smooth="yes"/>
      <point x="30" y="497" type="line" smooth="yes"/>
    </contour>
    <contour>
      <point x="647" y="497" type="line" smooth="yes"/>
      <point x="647" y="520" type="line" smooth="yes"/>
      <point x="425" y="520" type="line" smooth="yes"/>
      <point x="425" y="497" type="line" smooth="yes"/>
    </contour>
    <contour>
      <point x="346" y="520" type="move" name="top"/>
    </contour>
    <contour>
      <point x="346" y="0" type="move" name="bottom"/>
    </contour>
  </outline>
</glyph>
<glyph name="O" format="1">
  <advance width="606"/>
  <unicode hex="004F"/>
  <outline>
    <contour>
      <point x="441" y="-10"/>
      <point x="556" y="89"/>
      <point x="556" y="260" type="curve"/>
      <point x="556" y="431"/>
      <point x="441" y="530"/>
      <point x="303" y="530" type="curve"/>
      <point x="164" y="530"/>
      <point x="50" y="431"/>
      <point x="50" y="260" type="curve"/>
      <point x="50" y="89"/>
      <point x="164" y="-10"/>
      <point x="303" y="-10" type="curve"/>
    </contour>
    <contour>
      <point x="174" y="14"/>
      <point x="74" y="107"/>
      <point x="74" y="260" type="curve"/>
      <point x="74" y="413"/>
      <point x="174" y="506"/>
      <point x="303" y="506" type="curve"/>
      <point x="431" y="506"/>
      <point x="532" y="413"/>
      <point x="532" y="260" type="curve"/>
      <point x="532" y="107"/>
      <point x="431" y="14"/>
      <point x="303" y="14" type="curve"/>
    </contour>
    <contour>
      <point x="303" y="-27" type="move" name="bottom"/>
    </contour>
    <contour>
      <point x="303" y="-15" type="move" name="ogonek"/>
    </contour>
    <contour>
      <point x="303" y="517" type="move" name="top"/>
    </contour>
    <contour>
      <point x="540" y="490" type="move" name="topright"/>
    </contour>
    <contour>
      <point x="303" y="245" type="move" name="center"/>
    </contour>
  </outline>
</glyph>
<glyph name="Q" format="1">
  <advance width="608"/>
  <unicode hex="0051"/>
  <outline>
    <contour>
      <point x="441" y="-10"/>
      <point x="556" y="89"/>
      <point x="556" y="260" type="curve"/>
      <point x="556" y="431"/>
      <point x="441" y="530"/>
      <point x="303" y="530" type="curve"/>
      <point x="164" y="530"/>
      <point x="50" y="431"/>
      <point x="50" y="260" type="curve"/>
      <point x="50" y="89"/>
      <point x="164" y="-10"/>
      <point x="303" y="-10" type="curve"/>
    </contour>
    <contour>
      <point x="593" y="-158"/>
      <point x="627" y="-96"/>
      <point x="637" y="-31" type="curve"/>
      <point x="616" y="-26" type="line"/>
      <point x="608" y="-84"/>
      <point x="580" y="-135"/>
      <point x="520" y="-135" type="curve" smooth="yes"/>
      <point x="459" y="-135"/>
      <point x="427" y="-73"/>
      <point x="373" y="42" type="curve"/>
      <point x="359" y="73" type="line"/>
      <point x="296" y="208"/>
      <point x="236" y="253"/>
      <point x="120" y="253" type="curve" smooth="yes"/>
      <point x="64" y="253" type="line"/>
      <point x="64" y="230" type="line"/>
      <point x="120" y="230" type="line" smooth="yes"/>
      <point x="231" y="230"/>
      <point x="281" y="183"/>
      <point x="334" y="67" type="curve"/>
      <point x="349" y="34" type="line"/>
      <point x="410" y="-96"/>
      <point x="450" y="-158"/>
      <point x="520" y="-158" type="curve" smooth="yes"/>
    </contour>
    <contour>
      <point x="174" y="14"/>
      <point x="74" y="107"/>
      <point x="74" y="260" type="curve"/>
      <point x="74" y="413"/>
      <point x="174" y="506"/>
      <point x="303" y="506" type="curve"/>
      <point x="431" y="506"/>
      <point x="532" y="413"/>
      <point x="532" y="260" type="curve"/>
      <point x="532" y="107"/>
      <point x="431" y="14"/>
      <point x="303" y="14" type="curve"/>
    </contour>
    <contour>
      <point x="301" y="530" type="move" name="top"/>
    </contour>
    <contour>
      <point x="301" y="-10" type="move" name="bottom"/>
    </contour>
  </outline>
</glyph>
<glyph name="T" format="1">
  <advance width="549"/>
  <unicode hex="0054"/>
  <outline>
    <contour>
      <point x="50" y="384" type="line"/>
      <point x="50" y="497" type="line"/>
      <point x="499" y="497" type="line"/>
      <point x="499" y="384" type="line"/>
      <point x="524" y="384" type="line"/>
      <point x="524" y="520" type="line"/>
      <point x="25" y="520" type="line"/>
      <point x="25" y="384" type="line"/>
    </contour>
    <contour>
      <point x="405" y="0" type="line"/>
      <point x="405" y="23" type="line"/>
      <point x="144" y="23" type="line"/>
      <point x="144" y="0" type="line"/>
    </contour>
    <contour>
      <point x="287" y="13" type="line"/>
      <point x="287" y="507" type="line"/>
      <point x="262" y="507" type="line"/>
      <point x="262" y="13" type="line"/>
    </contour>
    <contour>
      <point x="270" y="245" type="move" name="center"/>
    </contour>
    <contour>
      <point x="270" y="0" type="move" name="bottom"/>
    </contour>
    <contour>
      <point x="270" y="490" type="move" name="top"/>
    </contour>
  </outline>
</glyph>
<glyph name="W" format="1">
  <advance width="911"/>
  <unicode hex="0057"/>
  <outline>
    <contour>
      <point x="307" y="-10" type="line"/>
      <point x="572" y="507" type="line"/>
      <point x="546" y="507" type="line"/>
      <point x="307" y="40" type="line"/>
      <point x="144" y="507" type="line"/>
      <point x="115" y="507" type="line"/>
      <point x="299" y="-10" type="line"/>
    </contour>
    <contour>
      <point x="247" y="497" type="line"/>
      <point x="247" y="520" type="line"/>
      <point x="20" y="520" type="line"/>
      <point x="20" y="497" type="line"/>
    </contour>
    <contour>
      <point x="612" y="-10" type="line"/>
      <point x="797" y="507" type="line"/>
      <point x="770" y="507" type="line"/>
      <point x="607" y="40" type="line"/>
      <point x="369" y="507" type="line"/>
      <point x="340" y="507" type="line"/>
      <point x="604" y="-10" type="line"/>
    </contour>
    <contour>
      <point x="631" y="497" type="line"/>
      <point x="631" y="520" type="line"/>
      <point x="275" y="520" type="line"/>
      <point x="275" y="497" type="line"/>
    </contour>
    <contour>
      <point x="891" y="497" type="line"/>
      <point x="891" y="520" type="line"/>
      <point x="654" y="520" type="line"/>
      <point x="654" y="497" type="line"/>
    </contour>
    <contour>
      <point x="459" y="520" type="move" name="top"/>
    </contour>
    <contour>
      <point x="459" y="0" type="move" name="bottom"/>
    </contour>
  </outline>
</glyph>
<glyph name="bracketleft" format="1">
  <advance width="244"/>
  <unicode hex="005B"/>
  <outline>
    <contour>
      <point x="105" y="-76" type="line"/>
      <point x="130" y="-76" type="line"/>
      <point x="130" y="604" type="line"/>
      <point x="105" y="604" type="line"/>
    </contour>
    <contour>
      <point x="107" y="581" type="line"/>
      <point x="229" y="581" type="line"/>
      <point x="229" y="604" type="line"/>
      <point x="107" y="604" type="line"/>
    </contour>
    <contour>
      <point x="107" y="-76" type="line"/>
      <point x="229" y="-76" type="line"/>
      <point x="229" y="-53" type="line"/>
      <point x="107" y="-53" type="line"/>
    </contour>
  </outline>
</glyph>
<glyph name="a" format="1">
  <advance width="452"/>
  <unicode hex="0061"/>
  <outline>
    <contour>
      <point x="72" y="306" type="line"/>
      <point x="118" y="327"/>
      <point x="166" y="343"/>
      <point x="224" y="343" type="curve" smooth="yes"/>
      <point x="281" y="343"/>
      <point x="331" y="317"/>
      <point x="331" y="233" type="curve" smooth="yes"/>
      <point x="331" y="73" type="line" smooth="yes"/>
      <point x="331" y="23"/>
      <point x="350" y="-5"/>
      <point x="387" y="-5" type="curve" smooth="yes"/>
      <point x="404" y="-5"/>
      <point x="418" y="1"/>
      <point x="427" y="7" type="curve"/>
      <point x="419" y="28" type="line"/>
      <point x="411" y="23"/>
      <point x="401" y="18"/>
      <point x="389" y="18" type="curve" smooth="yes"/>
      <point x="366" y="18"/>
      <point x="355" y="37"/>
      <point x="355" y="73" type="curve" smooth="yes"/>
      <point x="355" y="233" type="line" smooth="yes"/>
      <point x="355" y="333"/>
      <point x="294" y="367"/>
      <point x="224" y="367" type="curve" smooth="yes"/>
      <point x="166" y="367"/>
      <point x="112" y="350"/>
      <point x="65" y="329" type="curve"/>
    </contour>
    <contour>
      <point x="229" y="-10"/>
      <point x="291" y="25"/>
      <point x="346" y="67" type="curve"/>
      <point x="346" y="90" type="line"/>
      <point x="291" y="46"/>
      <point x="232" y="13"/>
      <point x="175" y="13" type="curve" smooth="yes"/>
      <point x="120" y="13"/>
      <point x="70" y="43"/>
      <point x="70" y="100" type="curve" smooth="yes"/>
      <point x="70" y="161"/>
      <point x="130" y="191"/>
      <point x="194" y="190" type="curve" smooth="yes"/>
      <point x="245" y="189"/>
      <point x="291" y="180"/>
      <point x="346" y="160" type="curve"/>
      <point x="346" y="183" type="line"/>
      <point x="295" y="201"/>
      <point x="250" y="213"/>
      <point x="194" y="213" type="curve" smooth="yes"/>
      <point x="107" y="213"/>
      <point x="45" y="168"/>
      <point x="45" y="100" type="curve" smooth="yes"/>
      <point x="45" y="29"/>
      <point x="106" y="-10"/>
      <point x="175" y="-10" type="curve" smooth="yes"/>
    </contour>
    <contour>
      <point x="427" y="7" type="move" name="ogonek"/>
    </contour>
    <contour>
      <point x="175" y="-10" type="move" name="bottom"/>
    </contour>
    <contour>
      <point x="224" y="377" type="move" name="top"/>
    </contour>
  </outline>
</glyph>
<glyph name="h" format="1">
  <advance width="531"/>
  <unicode hex="0068"/>
  <outline>
    <contour>
      <point x="432" y="0" type="line"/>
      <point x="432" y="234" type="line" smooth="yes"/>
      <point x="432" y="324"/>
      <point x="385" y="367"/>
      <point x="316" y="367" type="curve" smooth="yes"/>
      <point x="242" y="367"/>
      <point x="178" y="315"/>
      <point x="123" y="254" type="curve"/>
      <point x="123" y="231" type="line"/>
      <point x="179" y="294"/>
      <point x="248" y="344"/>
      <point x="311" y="344" type="curve" smooth="yes"/>
      <point x="375" y="344"/>
      <point x="407" y="304"/>
      <point x="407" y="229" type="curve" smooth="yes"/>
      <point x="407" y="0" type="line"/>
    </contour>
    <contour>
      <point x="212" y="0" type="line"/>
      <point x="212" y="23" type="line"/>
      <point x="20" y="23" type="line"/>
      <point x="20" y="0" type="line"/>
    </contour>
    <contour>
      <point x="514" y="0" type="line"/>
      <point x="514" y="23" type="line"/>
      <point x="332" y="23" type="line"/>
      <point x="332" y="0" type="line"/>
    </contour>
    <contour>
      <point x="20" y="520" type="line"/>
      <point x="20" y="497" type="line"/>
      <point x="112" y="497" type="line"/>
      <point x="112" y="0" type="line"/>
      <point x="137" y="0" type="line"/>
      <point x="137" y="520" type="line"/>
    </contour>
    <contour>
      <point x="288" y="179" type="move" name="center"/>
    </contour>
    <contour>
      <point x="288" y="0" type="move" name="bottom"/>
    </contour>
    <contour>
      <point x="288" y="387" type="move" name="top"/>
    </contour>
  </outline>
</glyph>
<glyph name="l" format="1">
  <advance width="249"/>
  <unicode hex="006C"/>
  <outline>
    <contour>
      <point x="137" y="0" type="line"/>
      <point x="137" y="520" type="line"/>
      <point x="112" y="520" type="line"/>
      <point x="112" y="0" type="line"/>
    </contour>
    <contour>
      <point x="229" y="0" type="line"/>
      <point x="229" y="23" type="line"/>
      <point x="20" y="23" type="line"/>
      <point x="20" y="0" type="line"/>
    </contour>
    <contour>
      <point x="137" y="497" type="line"/>
      <point x="137" y="520" type="line"/>
      <point x="20" y="520" type="line"/>
      <point x="20" y="497" type="line"/>
    </contour>
    <contour>
      <point x="125" y="0" type="move" name="bottom"/>
    </contour>
    <contour>
      <point x="125" y="560" type="move" name="top"/>
    </contour>
    <contour>
      <point x="294" y="357" type="move" name="topright"/>
    </contour>
    <contour>
      <point x="125" y="283" type="move" name="center"/>
    </contour>
  </outline>
</glyph>
<glyph name="n" format="1">
  <advance width="536"/>
  <unicode hex="006E"/>
  <outline>
    <contour>
      <point x="437" y="0" type="line"/>
      <point x="437" y="234" type="line" smooth="yes"/>
      <point x="437" y="324"/>
      <point x="390" y="367"/>
      <point x="321" y="367" type="curve" smooth="yes"/>
      <point x="247" y="367"/>
      <point x="183" y="315"/>
      <point x="128" y="254" type="curve"/>
      <point x="128" y="231" type="line"/>
      <point x="184" y="294"/>
      <point x="253" y="344"/>
      <point x="316" y="344" type="curve" smooth="yes"/>
      <point x="380" y="344"/>
      <point x="412" y="304"/>
      <point x="412" y="229" type="curve" smooth="yes"/>
      <point x="412" y="0" type="line"/>
    </contour>
    <contour>
      <point x="217" y="0" type="line"/>
      <point x="217" y="23" type="line"/>
      <point x="25" y="23" type="line"/>
      <point x="25" y="0" type="line"/>
    </contour>
    <contour>
      <point x="142" y="0" type="line"/>
      <point x="142" y="357" type="line"/>
      <point x="117" y="357" type="line"/>
      <point x="117" y="0" type="line"/>
    </contour>
    <contour>
      <point x="142" y="334" type="line"/>
      <point x="142" y="357" type="line"/>
      <point x="25" y="357" type="line"/>
      <point x="25" y="334" type="line"/>
    </contour>
    <contour>
      <point x="519" y="0" type="line"/>
      <point x="519" y="23" type="line"/>
      <point x="337" y="23" type="line"/>
      <point x="337" y="0" type="line"/>
    </contour>
    <contour>
      <point x="274" y="367" type="move" name="top"/>
    </contour>
    <contour>
      <point x="284" y="0" type="move" name="bottom"/>
    </contour>
  </outline>
</glyph>
<glyph name="p" format="1">
  <advance width="495"/>
  <unicode hex="0070"/>
  <outline>
    <contour>
      <point x="366" y="-10"/>
      <point x="450" y="67"/>
      <point x="450" y="187" type="curve" smooth="yes"/>
      <point x="450" y="298"/>
      <point x="375" y="367"/>
      <point x="284" y="367" type="curve" smooth="yes"/>
      <point x="215" y="367"/>
      <point x="160" y="326"/>
      <point x="123" y="290" type="curve"/>
      <point x="123" y="263" type="line"/>
      <point x="165" y="305"/>
      <point x="215" y="343"/>
      <point x="284" y="344" type="curve" smooth="yes"/>
      <point x="362" y="345"/>
      <point x="425" y="285"/>
      <point x="425" y="186" type="curve" smooth="yes"/>
      <point x="425" y="85"/>
      <point x="355" y="12"/>
      <point x="272" y="12" type="curve" smooth="yes"/>
      <point x="205" y="12"/>
      <point x="157" y="46"/>
      <point x="116" y="89" type="curve"/>
      <point x="116" y="66" type="line"/>
      <point x="157" y="24"/>
      <point x="205" y="-10"/>
      <point x="272" y="-10" type="curve" smooth="yes"/>
    </contour>
    <contour>
      <point x="233" y="-165" type="line"/>
      <point x="233" y="-142" type="line"/>
      <point x="20" y="-142" type="line"/>
      <point x="20" y="-165" type="line"/>
    </contour>
    <contour>
      <point x="136" y="-164" type="line"/>
      <point x="136" y="357" type="line"/>
      <point x="112" y="357" type="line"/>
      <point x="112" y="-164" type="line"/>
    </contour>
    <contour>
      <point x="136" y="334" type="line"/>
      <point x="136" y="357" type="line"/>
      <point x="20" y="357" type="line"/>
      <point x="20" y="334" type="line"/>
    </contour>
    <contour>
      <point x="266" y="387" type="move" name="top"/>
    </contour>
    <contour>
      <point x="266" y="-20" type="move" name="bottom"/>
    </contour>
  </outline>
</glyph>
<glyph name="q" format="1">
  <advance width="499"/>
  <unicode hex="0071"/>
  <outline>
    <contour>
      <point x="285" y="-10"/>
      <point x="338" y="25"/>
      <point x="372" y="67" type="curve"/>
      <point x="372" y="94" type="line"/>
      <point x="333" y="46"/>
      <point x="285" y="14"/>
      <point x="221" y="13" type="curve" smooth="yes"/>
      <point x="133" y="12"/>
      <point x="70" y="77"/>
      <point x="70" y="166" type="curve" smooth="yes"/>
      <point x="70" y="272"/>
      <point x="140" y="345"/>
      <point x="243" y="345" type="curve" smooth="yes"/>
      <point x="333" y="345"/>
      <point x="405" y="299"/>
      <point x="474" y="241" type="curve"/>
      <point x="474" y="266" type="line"/>
      <point x="412" y="318"/>
      <point x="336" y="367"/>
      <point x="243" y="367" type="curve" smooth="yes"/>
      <point x="129" y="367"/>
      <point x="45" y="290"/>
      <point x="45" y="165" type="curve" smooth="yes"/>
      <point x="45" y="64"/>
      <point x="120" y="-10"/>
      <point x="221" y="-10" type="curve" smooth="yes"/>
    </contour>
    <contour>
      <point x="465" y="-165" type="line"/>
      <point x="465" y="-142" type="line"/>
      <point x="252" y="-142" type="line"/>
      <point x="252" y="-165" type="line"/>
    </contour>
    <contour>
      <point x="373" y="-164" type="line"/>
      <point x="373" y="357" type="line"/>
      <point x="349" y="357" type="line"/>
      <point x="349" y="-164" type="line"/>
    </contour>
    <contour>
      <point x="234" y="179" type="move" name="center"/>
    </contour>
    <contour>
      <point x="235" y="-20" type="move" name="bottom"/>
    </contour>
    <contour>
      <point x="235" y="387" type="move" name="top"/>
    </contour>
  </outline>
</glyph>
<glyph name="r" format="1">
  <advance width="389"/>
  <unicode hex="0072"/>
  <outline>
    <contour>
      <point x="202" y="299"/>
      <point x="258" y="342"/>
      <point x="331" y="344" type="curve"/>
      <point x="331" y="252" type="line"/>
      <point x="354" y="252" type="line"/>
      <point x="354" y="367" type="line"/>
      <point x="337" y="367" type="line" smooth="yes"/>
      <point x="258" y="367"/>
      <point x="199" y="321"/>
      <point x="139" y="255" type="curve"/>
      <point x="139" y="232" type="line"/>
    </contour>
    <contour>
      <point x="234" y="0" type="line"/>
      <point x="234" y="24" type="line"/>
      <point x="25" y="24" type="line"/>
      <point x="25" y="0" type="line"/>
    </contour>
    <contour>
      <point x="142" y="0" type="line"/>
      <point x="142" y="357" type="line"/>
      <point x="117" y="357" type="line"/>
      <point x="117" y="0" type="line"/>
    </contour>
    <contour>
      <point x="142" y="334" type="line"/>
      <point x="142" y="357" type="line"/>
      <point x="25" y="357" type="line"/>
      <point x="25" y="334" type="line"/>
    </contour>
    <contour>
      <point x="210" y="357" type="move" name="top"/>
    </contour>
    <contour>
      <point x="210" y="0" type="move" name="bottom"/>
    </contour>
  </outline>
</glyph>
<glyph name="u" format="1">
  <advance width="507"/>
  <unicode hex="0075"/>
  <outline>
    <contour>
      <point x="283" y="-10"/>
      <point x="343" y="40"/>
      <point x="394" y="103" type="curve"/>
      <point x="394" y="126" type="line"/>
      <point x="342" y="61"/>
      <point x="277" y="13"/>
      <point x="216" y="13" type="curve" smooth="yes"/>
      <point x="154" y="13"/>
      <point x="127" y="53"/>
      <point x="127" y="123" type="curve" smooth="yes"/>
      <point x="127" y="357" type="line"/>
      <point x="102" y="357" type="line"/>
      <point x="102" y="118" type="line" smooth="yes"/>
      <point x="102" y="33"/>
      <point x="144" y="-10"/>
      <point x="211" y="-10" type="curve" smooth="yes"/>
    </contour>
    <contour>
      <point x="115" y="334" type="line"/>
      <point x="115" y="357" type="line"/>
      <point x="20" y="357" type="line"/>
      <point x="20" y="334" type="line"/>
    </contour>
    <contour>
      <point x="453" y="-10"/>
      <point x="465" y="-5"/>
      <point x="477" y="2" type="curve"/>
      <point x="468" y="23" type="line"/>
      <point x="459" y="17"/>
      <point x="451" y="14"/>
      <point x="438" y="14" type="curve" smooth="yes"/>
      <point x="418" y="14"/>
      <point x="405" y="29"/>
      <point x="405" y="68" type="curve"/>
      <point x="405" y="357" type="line"/>
      <point x="380" y="357" type="line"/>
      <point x="380" y="68" type="line"/>
      <point x="380" y="18"/>
      <point x="400" y="-10"/>
      <point x="437" y="-10" type="curve" smooth="yes"/>
    </contour>
    <contour>
      <point x="397" y="334" type="line"/>
      <point x="397" y="357" type="line"/>
      <point x="305" y="357" type="line"/>
      <point x="305" y="334" type="line"/>
    </contour>
    <contour>
      <point x="452" y="-2" type="move" name="ogonek"/>
    </contour>
    <contour>
      <point x="206" y="357" type="move" name="top"/>
    </contour>
    <contour>
      <point x="477" y="357" type="move" name="topright"/>
    </contour>
    <contour>
      <point x="236" y="-20" type="move" name="bottom"/>
    </contour>
  </outline>
</glyph>
<glyph name="x" format="1">
  <advance width="555"/>
  <unicode hex="0078"/>
  <outline>
    <contour>
      <point x="540" y="334" type="line"/>
      <point x="540" y="357" type="line"/>
      <point x="352" y="357" type="line"/>
      <point x="352" y="334" type="line"/>
    </contour>
    <contour>
      <point x="107" y="9" type="line"/>
      <point x="280" y="168" type="line"/>
      <point x="285" y="168" type="line"/>
      <point x="481" y="348" type="line"/>
      <point x="448" y="348" type="line"/>
      <point x="275" y="189" type="line"/>
      <point x="270" y="189" type="line"/>
      <point x="74" y="9" type="line"/>
    </contour>
    <contour>
      <point x="203" y="0" type="line"/>
      <point x="203" y="23" type="line"/>
      <point x="15" y="23" type="line"/>
      <point x="15" y="0" type="line"/>
    </contour>
    <contour>
      <point x="54" y="245" type="line"/>
      <point x="54" y="302"/>
      <point x="77" y="344"/>
      <point x="127" y="344" type="curve" smooth="yes"/>
      <point x="175" y="344"/>
      <point x="209" y="290"/>
      <point x="267" y="172" type="curve"/>
      <point x="268" y="169" type="line"/>
      <point x="322" y="61"/>
      <point x="360" y="-10"/>
      <point x="425" y="-10" type="curve" smooth="yes"/>
      <point x="500" y="-10"/>
      <point x="524" y="59"/>
      <point x="524" y="112" type="curve"/>
      <point x="499" y="112" type="line"/>
      <point x="499" y="55"/>
      <point x="475" y="13"/>
      <point x="425" y="13" type="curve" smooth="yes"/>
      <point x="377" y="13"/>
      <point x="344" y="66"/>
      <point x="287" y="181" type="curve"/>
      <point x="286" y="184" type="line"/>
      <point x="233" y="293"/>
      <point x="192" y="367"/>
      <point x="127" y="367" type="curve" smooth="yes"/>
      <point x="52" y="367"/>
      <point x="29" y="298"/>
      <point x="29" y="245" type="curve"/>
    </contour>
    <contour>
      <point x="295" y="357" type="move" name="top"/>
    </contour>
    <contour>
      <point x="295" y="0" type="move" name="bottom"/>
    </contour>
  </outline>
</glyph>
<glyph name="y" format="1">
  <advance width="497"/>
  <unicode hex="0079"/>
  <outline>
    <contour>
      <point x="178" y="-193"/>
      <point x="216" y="-143"/>
      <point x="251" y="-63" type="curve" smooth="yes"/>
      <point x="426" y="343" type="line"/>
      <point x="399" y="343" type="line"/>
      <point x="224" y="-64" type="line" smooth="yes"/>
      <point x="193" y="-137"/>
      <point x="158" y="-170"/>
      <point x="116" y="-170" type="curve" smooth="yes"/>
      <point x="82" y="-170"/>
      <point x="56" y="-154"/>
      <point x="33" y="-136" type="curve"/>
      <point x="20" y="-156" type="line"/>
      <point x="43" y="-173"/>
      <point x="74" y="-193"/>
      <point x="116" y="-193" type="curve" smooth="yes"/>
    </contour>
    <contour>
      <point x="262" y="-20" type="line"/>
      <point x="101" y="348" type="line"/>
      <point x="73" y="348" type="line"/>
      <point x="247" y="-44" type="line"/>
    </contour>
    <contour>
      <point x="183" y="334" type="line"/>
      <point x="183" y="357" type="line"/>
      <point x="0" y="357" type="line"/>
      <point x="0" y="334" type="line"/>
    </contour>
    <contour>
      <point x="497" y="334" type="line"/>
      <point x="497" y="357" type="line"/>
      <point x="324" y="357" type="line"/>
      <point x="324" y="334" type="line"/>
    </contour>
    <contour>
      <point x="256" y="357" type="move" name="top"/>
    </contour>
    <contour>
      <point x="256" y="0" type="move" name="bottom"/>
    </contour>
  </outline>
</glyph>
<glyph name="braceleft" format="1">
  <advance width="314"/>
  <unicode hex="007B"/>
  <outline>
    <contour>
      <point x="249" y="-120"/>
      <point x="282" y="-111"/>
      <point x="319" y="-95" type="curve"/>
      <point x="312" y="-73" type="line"/>
      <point x="278" y="-87"/>
      <point x="247" y="-96"/>
      <point x="203" y="-96" type="curve" smooth="yes"/>
      <point x="157" y="-96"/>
      <point x="98" y="-77"/>
      <point x="98" y="-17" type="curve" smooth="yes"/>
      <point x="98" y="66"/>
      <point x="235" y="96"/>
      <point x="235" y="186" type="curve" smooth="yes"/>
      <point x="235" y="234"/>
      <point x="189" y="270"/>
      <point x="111" y="270" type="curve"/>
      <point x="111" y="260" type="line"/>
      <point x="189" y="260"/>
      <point x="235" y="296"/>
      <point x="235" y="344" type="curve" smooth="yes"/>
      <point x="235" y="434"/>
      <point x="98" y="464"/>
      <point x="98" y="547" type="curve" smooth="yes"/>
      <point x="98" y="607"/>
      <point x="157" y="626"/>
      <point x="203" y="626" type="curve" smooth="yes"/>
      <point x="247" y="626"/>
      <point x="278" y="619"/>
      <point x="312" y="603" type="curve"/>
      <point x="319" y="625" type="line"/>
      <point x="282" y="642"/>
      <point x="249" y="650"/>
      <point x="203" y="650" type="curve" smooth="yes"/>
      <point x="144" y="650"/>
      <point x="73" y="622"/>
      <point x="73" y="547" type="curve" smooth="yes"/>
      <point x="73" y="450"/>
      <point x="211" y="423"/>
      <point x="211" y="345" type="curve" smooth="yes"/>
      <point x="211" y="307"/>
      <point x="175" y="276"/>
      <point x="97" y="276" type="curve" smooth="yes"/>
      <point x="60" y="276" type="line"/>
      <point x="60" y="254" type="line"/>
      <point x="97" y="254" type="line" smooth="yes"/>
      <point x="175" y="254"/>
      <point x="211" y="223"/>
      <point x="211" y="185" type="curve" smooth="yes"/>
      <point x="211" y="112"/>
      <point x="73" y="75"/>
      <point x="73" y="-17" type="curve" smooth="yes"/>
      <point x="73" y="-92"/>
      <point x="144" y="-120"/>
      <point x="203" y="-120" type="curve" smooth="yes"/>
    </contour>
  </outline>
</glyph>
<glyph name="guillemotleft" format="1">
  <advance width="444"/>
  <unicode hex="00AB"/>
  <outline>
    <contour>
      <point x="424" y="71" type="line"/>
      <point x="408" y="185"/>
      <point x="299" y="268"/>
      <point x="206" y="268" type="curve"/>
      <point x="206" y="261" type="line"/>
      <point x="299" y="261"/>
      <point x="408" y="344"/>
      <point x="424" y="458" type="curve"/>
      <point x="404" y="462" type="line"/>
      <point x="385" y="353"/>
      <point x="282" y="276"/>
      <point x="187" y="276" type="curve" smooth="yes"/>
      <point x="175" y="276" type="line"/>
      <point x="175" y="253" type="line"/>
      <point x="187" y="253" type="line" smooth="yes"/>
      <point x="282" y="253"/>
      <point x="385" y="176"/>
      <point x="404" y="67" type="curve"/>
    </contour>
    <contour>
      <point x="229" y="71" type="line"/>
      <point x="213" y="185"/>
      <point x="104" y="268"/>
      <point x="11" y="268" type="curve"/>
      <point x="11" y="261" type="line"/>
      <point x="104" y="261"/>
      <point x="213" y="344"/>
      <point x="229" y="458" type="curve"/>
      <point x="209" y="462" type="line"/>
      <point x="190" y="353"/>
      <point x="87" y="276"/>
      <point x="-8" y="276" type="curve" smooth="yes"/>
      <point x="-20" y="276" type="line"/>
      <point x="-20" y="253" type="line"/>
      <point x="-8" y="253" type="line" smooth="yes"/>
      <point x="87" y="253"/>
      <point x="190" y="176"/>
      <point x="209" y="67" type="curve"/>
    </contour>
  </outline>
</glyph>
<glyph name="degree" format="1">
  <advance width="346"/>
  <unicode hex="00B0"/>
  <outline>
    <contour>
      <point x="239" y="362"/>
      <point x="296" y="413"/>
      <point x="296" y="487" type="curve" smooth="yes"/>
      <point x="296" y="558"/>
      <point x="239" y="613"/>
      <point x="173" y="613" type="curve" smooth="yes"/>
      <point x="107" y="613"/>
      <point x="50" y="562"/>
      <point x="50" y="488" type="curve" smooth="yes"/>
      <point x="50" y="417"/>
      <point x="107" y="362"/>
      <point x="173" y="362" type="curve" smooth="yes"/>
    </contour>
    <contour>
      <point x="118" y="384"/>
      <point x="73" y="431"/>
      <point x="73" y="488" type="curve" smooth="yes"/>
      <point x="73" y="547"/>
      <point x="118" y="591"/>
      <point x="173" y="591" type="curve" smooth="yes"/>
      <point x="228" y="591"/>
      <point x="273" y="544"/>
      <point x="273" y="487" type="curve" smooth="yes"/>
      <point x="273" y="428"/>
      <point x="228" y="384"/>
      <point x="173" y="384" type="curve" smooth="yes"/>
    </contour>
  </outline>
</glyph>
<glyph name="paragraph" format="1">
  <advance width="583"/>
  <unicode hex="00B6"/>
  <outline>
    <contour>
      <point x="408" y="-176"/>
      <point x="473" y="-112"/>
      <point x="473" y="3" type="curve" smooth="yes"/>
      <point x="473" y="520" type="line"/>
      <point x="447" y="520" type="line"/>
      <point x="447" y="-2" type="line" smooth="yes"/>
      <point x="447" y="-102"/>
      <point x="391" y="-153"/>
      <point x="315" y="-153" type="curve" smooth="yes"/>
      <point x="248" y="-153"/>
      <point x="195" y="-120"/>
      <point x="161" y="-93" type="curve"/>
      <point x="146" y="-113" type="line"/>
      <point x="184" y="-142"/>
      <point x="241" y="-176"/>
      <point x="315" y="-176" type="curve" smooth="yes"/>
    </contour>
    <contour>
      <point x="363" y="-161" type="line"/>
      <point x="363" y="490" type="line"/>
      <point x="339" y="500" type="line"/>
      <point x="339" y="-161" type="line"/>
    </contour>
    <contour>
      <point x="275" y="153"/>
      <point x="328" y="188"/>
      <point x="362" y="230" type="curve"/>
      <point x="362" y="257" type="line"/>
      <point x="323" y="209"/>
      <point x="275" y="177"/>
      <point x="211" y="176" type="curve" smooth="yes"/>
      <point x="123" y="175"/>
      <point x="60" y="240"/>
      <point x="60" y="334" type="curve" smooth="yes"/>
      <point x="60" y="435"/>
      <point x="130" y="508"/>
      <point x="233" y="508" type="curve" smooth="yes"/>
      <point x="323" y="508"/>
      <point x="395" y="462"/>
      <point x="464" y="404" type="curve"/>
      <point x="464" y="429" type="line"/>
      <point x="402" y="481"/>
      <point x="326" y="530"/>
      <point x="233" y="530" type="curve" smooth="yes"/>
      <point x="119" y="530"/>
      <point x="35" y="453"/>
      <point x="35" y="333" type="curve" smooth="yes"/>
      <point x="35" y="227"/>
      <point x="110" y="153"/>
      <point x="211" y="153" type="curve" smooth="yes"/>
    </contour>
  </outline>
</glyph>
<glyph name="ordmasculine" format="1">
  <advance width="288"/>
  <unicode hex="00BA"/>
  <outline>
    <contour>
      <point x="204" y="310"/>
      <point x="253" y="353"/>
      <point x="253" y="421" type="curve"/>
      <point x="253" y="488"/>
      <point x="204" y="531"/>
      <point x="144" y="532" type="curve"/>
      <point x="84" y="531"/>
      <point x="35" y="488"/>
      <point x="35" y="421" type="curve"/>
      <point x="35" y="353"/>
      <point x="84" y="310"/>
      <point x="144" y="310" type="curve"/>
    </contour>
    <contour>
      <point x="93" y="330"/>
      <point x="58" y="370"/>
      <point x="58" y="421" type="curve"/>
      <point x="58" y="471"/>
      <point x="93" y="511"/>
      <point x="144" y="511" type="curve"/>
      <point x="196" y="511"/>
      <point x="231" y="471"/>
      <point x="231" y="421" type="curve"/>
      <point x="231" y="370"/>
      <point x="196" y="330"/>
      <point x="144" y="330" type="curve"/>
    </contour>
    <contour>
      <point x="45" y="212" type="line"/>
      <point x="243" y="212" type="line"/>
      <point x="243" y="233" type="line"/>
      <point x="45" y="233" type="line"/>
    </contour>
  </outline>
</glyph>
<glyph name="AE" format="1">
  <advance width="940"/>
  <unicode hex="00C6"/>
  <outline>
    <contour>
      <point x="125" y="13" type="line"/>
      <point x="434" y="501" type="line"/>
      <point x="434" y="501" type="line"/>
      <point x="565" y="13" type="line"/>
      <point x="593" y="13" type="line"/>
      <point x="455" y="510" type="line" smooth="yes"/>
      <point x="413" y="510" type="line"/>
      <point x="98" y="13" type="line"/>
    </contour>
    <contour>
      <point x="229" y="0" type="line"/>
      <point x="229" y="23" type="line"/>
      <point x="0" y="23" type="line"/>
      <point x="0" y="0" type="line"/>
    </contour>
    <contour>
      <point x="525" y="198" type="line"/>
      <point x="508" y="221" type="line"/>
      <point x="242" y="221" type="line"/>
      <point x="224" y="198" type="line"/>
    </contour>
    <contour>
      <point x="880" y="0" type="line"/>
      <point x="880" y="136" type="line"/>
      <point x="856" y="136" type="line"/>
      <point x="856" y="23" type="line"/>
      <point x="464" y="23" type="line"/>
      <point x="464" y="0" type="line"/>
    </contour>
    <contour>
      <point x="724" y="178" type="line"/>
      <point x="724" y="367" type="line"/>
      <point x="699" y="367" type="line"/>
      <point x="699" y="284" type="line"/>
      <point x="508" y="284" type="line"/>
      <point x="508" y="261" type="line"/>
      <point x="699" y="261" type="line"/>
      <point x="699" y="178" type="line"/>
    </contour>
    <contour>
      <point x="880" y="384" type="line"/>
      <point x="880" y="520" type="line"/>
      <point x="302" y="520" type="line"/>
      <point x="302" y="497" type="line"/>
      <point x="855" y="497" type="line"/>
      <point x="855" y="384" type="line"/>
    </contour>
    <contour>
      <point x="880" y="0" type="move" name="ogonek"/>
    </contour>
    <contour>
      <point x="512" y="0" type="move" name="bottom"/>
    </contour>
    <contour>
      <point x="513" y="520" type="move" name="top"/>
    </contour>
  </outline>
</glyph>
<glyph name="Thorn" format="1">
  <advance width="538"/>
  <unicode hex="00DE"/>
  <outline>
    <contour>
      <point x="347" y="142" type="line" smooth="yes"/>
      <point x="444" y="142"/>
      <point x="508" y="182"/>
      <point x="508" y="258" type="curve" smooth="yes"/>
      <point x="508" y="334"/>
      <point x="444" y="376"/>
      <point x="347" y="376" type="curve" smooth="yes"/>
      <point x="151" y="376" type="line"/>
      <point x="151" y="353" type="line"/>
      <point x="347" y="353" type="line" smooth="yes"/>
      <point x="429" y="353"/>
      <point x="483" y="320"/>
      <point x="483" y="259" type="curve" smooth="yes"/>
      <point x="483" y="198"/>
      <point x="429" y="165"/>
      <point x="347" y="165" type="curve" smooth="yes"/>
      <point x="151" y="165" type="line"/>
      <point x="151" y="142" type="line"/>
    </contour>
    <contour>
      <point x="286" y="0" type="line"/>
      <point x="286" y="23" type="line"/>
      <point x="30" y="23" type="line"/>
      <point x="30" y="0" type="line"/>
    </contour>
    <contour>
      <point x="168" y="13" type="line"/>
      <point x="168" y="508" type="line"/>
      <point x="143" y="508" type="line"/>
      <point x="143" y="13" type="line"/>
    </contour>
    <contour>
      <point x="286" y="497" type="line"/>
      <point x="286" y="520" type="line"/>
      <point x="30" y="520" type="line"/>
      <point x="30" y="497" type="line"/>
    </contour>
  </outline>
</glyph>
<glyph name="oe" format="1">
  <advance width="757"/>
  <unicode hex="0153"/>
  <outline>
    <contour>
      <point x="322" y="-10"/>
      <point x="405" y="63"/>
      <point x="405" y="178" type="curve"/>
      <point x="405" y="293"/>
      <point x="322" y="366"/>
      <point x="225" y="367" type="curve"/>
      <point x="128" y="366"/>
      <point x="45" y="293"/>
      <point x="45" y="178" type="curve"/>
      <point x="45" y="63"/>
      <point x="128" y="-10"/>
      <point x="225" y="-11" type="curve"/>
    </contour>
    <contour>
      <point x="137" y="12"/>
      <point x="71" y="79"/>
      <point x="71" y="178" type="curve"/>
      <point x="71" y="277"/>
      <point x="137" y="344"/>
      <point x="225" y="344" type="curve"/>
      <point x="313" y="344"/>
      <point x="379" y="277"/>
      <point x="379" y="178" type="curve"/>
      <point x="379" y="79"/>
      <point x="313" y="12"/>
      <point x="225" y="12" type="curve"/>
    </contour>
    <contour>
      <point x="693" y="67" type="line"/>
      <point x="659" y="36"/>
      <point x="622" y="14"/>
      <point x="563" y="13" type="curve" smooth="yes"/>
      <point x="482" y="12"/>
      <point x="405" y="72"/>
      <point x="405" y="167" type="curve" smooth="yes"/>
      <point x="405" y="282"/>
      <point x="490" y="343"/>
      <point x="567" y="343" type="curve" smooth="yes"/>
      <point x="633" y="343"/>
      <point x="681" y="309"/>
      <point x="681" y="257" type="curve" smooth="yes"/>
      <point x="681" y="204"/>
      <point x="620" y="180"/>
      <point x="564" y="180" type="curve" smooth="yes"/>
      <point x="504" y="180"/>
      <point x="450" y="195"/>
      <point x="399" y="213" type="curve"/>
      <point x="400" y="192" type="line"/>
      <point x="450" y="174"/>
      <point x="504" y="157"/>
      <point x="564" y="157" type="curve" smooth="yes"/>
      <point x="635" y="157"/>
      <point x="706" y="191"/>
      <point x="706" y="257" type="curve" smooth="yes"/>
      <point x="706" y="320"/>
      <point x="646" y="366"/>
      <point x="567" y="366" type="curve" smooth="yes"/>
      <point x="483" y="366"/>
      <point x="390" y="306"/>
      <point x="382" y="185" type="curve"/>
      <point x="382" y="167" type="line"/>
      <point x="382" y="51"/>
      <point x="472" y="-10"/>
      <point x="563" y="-10" type="curve" smooth="yes"/>
      <point x="626" y="-10"/>
      <point x="669" y="16"/>
      <point x="707" y="49" type="curve"/>
    </contour>
    <contour>
      <point x="405" y="-10" type="move" name="bottom"/>
    </contour>
    <contour>
      <point x="707" y="49" type="move" name="ogonek"/>
    </contour>
    <contour>
      <point x="396" y="367" type="move" name="top"/>
    </contour>
    <contour>
      <point x="394" y="179" type="move" name="center"/>
    </contour>
  </outline>
</glyph>
<glyph name="uni0237" format="1">
  <advance width="228"/>
  <unicode hex="0237"/>
  <outline>
    <contour>
      <point x="102" y="-190"/>
      <point x="143" y="-145"/>
      <point x="143" y="-78" type="curve" smooth="yes"/>
      <point x="143" y="357" type="line"/>
      <point x="118" y="357" type="line"/>
      <point x="118" y="-79" type="line" smooth="yes"/>
      <point x="118" y="-137"/>
      <point x="85" y="-167"/>
      <point x="40" y="-167" type="curve" smooth="yes"/>
      <point x="7" y="-167"/>
      <point x="-24" y="-156"/>
      <point x="-43" y="-146" type="curve"/>
      <point x="-50" y="-168" type="line"/>
      <point x="-31" y="-177"/>
      <point x="1" y="-190"/>
      <point x="39" y="-190" type="curve" smooth="yes"/>
    </contour>
    <contour>
      <point x="143" y="334" type="line"/>
      <point x="143" y="357" type="line"/>
      <point x="26" y="357" type="line"/>
      <point x="26" y="334" type="line"/>
    </contour>
    <contour>
      <point x="91" y="357" type="move" name="top"/>
    </contour>
    <contour>
      <point x="91" y="0" type="move" name="bottom"/>
    </contour>
  </outline>
</glyph>
<glyph name="gravecomb" format="1">
  <advance width="348"/>
  <unicode hex="0300"/>
  <outline>
    <contour>
      <point x="268" y="496" type="line"/>
      <point x="70" y="615" type="line"/>
      <point x="85" y="638" type="line"/>
      <point x="278" y="511" type="line"/>
    </contour>
    <contour>
      <point x="240" y="421" type="move" name="_top"/>
    </contour>
  </outline>
</glyph>
<glyph name="acutecomb" format="1">
  <advance width="348"/>
  <unicode hex="0301"/>
  <outline>
    <contour>
      <point x="263" y="638" type="line"/>
      <point x="278" y="615" type="line"/>
      <point x="80" y="496" type="line"/>
      <point x="70" y="511" type="line"/>
    </contour>
    <contour>
      <point x="108" y="421" type="move" name="_top"/>
    </contour>
  </outline>
</glyph>
<glyph name="uni0302" format="1">
  <advance width="334"/>
  <unicode hex="0302"/>
  <outline>
    <contour>
      <point x="167" y="611" type="line"/>
      <point x="288" y="492" type="line"/>
      <point x="299" y="503" type="line"/>
      <point x="177" y="639" type="line"/>
      <point x="157" y="639" type="line"/>
      <point x="35" y="503" type="line"/>
      <point x="46" y="492" type="line"/>
    </contour>
    <contour>
      <point x="167" y="441" type="move" name="_top"/>
    </contour>
  </outline>
</glyph>
<glyph name="tildecomb" format="1">
  <advance width="423"/>
  <unicode hex="0303"/>
  <outline>
    <contour>
      <point x="337" y="488"/>
      <point x="364" y="532"/>
      <point x="368" y="608" type="curve"/>
      <point x="347" y="610" type="line"/>
      <point x="343" y="537"/>
      <point x="320" y="510"/>
      <point x="287" y="510" type="curve" smooth="yes"/>
      <point x="260" y="510"/>
      <point x="244" y="528"/>
      <point x="219" y="563" type="curve" smooth="yes"/>
      <point x="193" y="600"/>
      <point x="171" y="623"/>
      <point x="136" y="623" type="curve" smooth="yes"/>
      <point x="86" y="623"/>
      <point x="59" y="579"/>
      <point x="55" y="503" type="curve"/>
      <point x="76" y="501" type="line"/>
      <point x="80" y="574"/>
      <point x="103" y="601"/>
      <point x="136" y="601" type="curve" smooth="yes"/>
      <point x="163" y="601"/>
      <point x="179" y="583"/>
      <point x="204" y="548" type="curve" smooth="yes"/>
      <point x="230" y="511"/>
      <point x="252" y="488"/>
      <point x="287" y="488" type="curve" smooth="yes"/>
    </contour>
    <contour>
      <point x="206" y="391" type="move" name="_top"/>
    </contour>
  </outline>
</glyph>
<glyph name="uni0306" format="1">
  <advance width="388"/>
  <unicode hex="0306"/>
  <outline>
    <contour>
      <point x="258" y="508"/>
      <point x="299" y="553"/>
      <point x="313" y="619" type="curve"/>
      <point x="333" y="616" type="line"/>
      <point x="324" y="550"/>
      <point x="281" y="484"/>
      <point x="194" y="484" type="curve"/>
      <point x="107" y="484"/>
      <point x="64" y="550"/>
      <point x="55" y="616" type="curve"/>
      <point x="75" y="619" type="line"/>
      <point x="89" y="553"/>
      <point x="132" y="508"/>
      <point x="195" y="508" type="curve"/>
    </contour>
    <contour>
      <point x="194" y="391" type="move" name="_top"/>
    </contour>
  </outline>
</glyph>
<glyph name="hookabovecomb" format="1">
  <advance width="600"/>
  <unicode hex="0309"/>
  <outline>
    <contour>
      <point x="233" y="460" type="line"/>
      <point x="266" y="493"/>
      <point x="288" y="520"/>
      <point x="288" y="557" type="curve" smooth="yes"/>
      <point x="288" y="602"/>
      <point x="249" y="632"/>
      <point x="199" y="632" type="curve" smooth="yes"/>
      <point x="159" y="632"/>
      <point x="127" y="615"/>
      <point x="102" y="598" type="curve"/>
      <point x="113" y="580" type="line"/>
      <point x="139" y="595"/>
      <point x="166" y="609"/>
      <point x="199" y="609" type="curve" smooth="yes"/>
      <point x="238" y="609"/>
      <point x="263" y="588"/>
      <point x="263" y="554" type="curve" smooth="yes"/>
      <point x="263" y="520"/>
      <point x="240" y="497"/>
      <point x="223" y="469" type="curve"/>
    </contour>
    <contour>
      <point x="179" y="431" type="move" name="_hook"/>
    </contour>
  </outline>
</glyph>
<glyph name="uni030B" format="1">
  <advance width="446"/>
  <unicode hex="030B"/>
  <outline>
    <contour>
      <point x="391" y="658" type="line"/>
      <point x="372" y="674" type="line"/>
      <point x="251" y="522" type="line"/>
      <point x="262" y="512" type="line"/>
    </contour>
    <contour>
      <point x="195" y="658" type="line"/>
      <point x="176" y="674" type="line"/>
      <point x="55" y="522" type="line"/>
      <point x="66" y="512" type="line"/>
    </contour>
    <contour>
      <point x="204" y="391" type="move" name="_top"/>
    </contour>
  </outline>
</glyph>
<glyph name="uni0312" format="1">
  <advance width="199"/>
  <unicode hex="0312"/>
  <outline>
    <contour>
      <point x="55" y="490"/>
      <point x="74" y="470"/>
      <point x="104" y="470" type="curve" smooth="yes"/>
      <point x="126" y="470"/>
      <point x="144" y="485"/>
      <point x="144" y="504" type="curve" smooth="yes"/>
      <point x="144" y="523"/>
      <point x="126" y="535"/>
      <point x="107" y="535" type="curve" smooth="yes"/>
      <point x="94" y="535"/>
      <point x="87" y="533"/>
      <point x="76" y="530" type="curve"/>
      <point x="80" y="574"/>
      <point x="107" y="610"/>
      <point x="144" y="648" type="curve"/>
      <point x="133" y="660" type="line"/>
      <point x="85" y="619"/>
      <point x="55" y="565"/>
      <point x="55" y="522" type="curve" smooth="yes"/>
    </contour>
    <contour>
      <point x="104" y="393" type="move" name="_top"/>
    </contour>
  </outline>
</glyph>
<glyph name="uni0326" format="1">
  <advance width="199"/>
  <unicode hex="0326"/>
  <outline>
    <contour>
      <point x="144" y="-105"/>
      <point x="125" y="-85"/>
      <point x="95" y="-85" type="curve" smooth="yes"/>
      <point x="73" y="-85"/>
      <point x="55" y="-100"/>
      <point x="55" y="-119" type="curve" smooth="yes"/>
      <point x="55" y="-138"/>
      <point x="73" y="-150"/>
      <point x="92" y="-150" type="curve" smooth="yes"/>
      <point x="105" y="-150"/>
      <point x="112" y="-148"/>
      <point x="123" y="-145" type="curve"/>
      <point x="119" y="-189"/>
      <point x="92" y="-225"/>
      <point x="55" y="-263" type="curve"/>
      <point x="66" y="-275" type="line"/>
      <point x="114" y="-234"/>
      <point x="144" y="-180"/>
      <point x="144" y="-137" type="curve" smooth="yes"/>
    </contour>
    <contour>
      <point x="95" y="0" type="move" name="_bottom"/>
    </contour>
  </outline>
</glyph>
<glyph name="ellipsis" format="1">
  <advance width="579"/>
  <unicode hex="2026"/>
  <outline>
    <contour>
      <point x="507" y="-10"/>
      <point x="524" y="4"/>
      <point x="524" y="22" type="curve"/>
      <point x="524" y="41"/>
      <point x="507" y="55"/>
      <point x="482" y="55" type="curve"/>
      <point x="459" y="55"/>
      <point x="441" y="41"/>
      <point x="441" y="22" type="curve"/>
      <point x="441" y="4"/>
      <point x="459" y="-10"/>
      <point x="482" y="-10" type="curve"/>
    </contour>
    <contour>
      <point x="121" y="-10"/>
      <point x="138" y="4"/>
      <point x="138" y="22" type="curve"/>
      <point x="138" y="41"/>
      <point x="121" y="55"/>
      <point x="96" y="55" type="curve"/>
      <point x="73" y="55"/>
      <point x="55" y="41"/>
      <point x="55" y="22" type="curve"/>
      <point x="55" y="4"/>
      <point x="73" y="-10"/>
      <point x="96" y="-10" type="curve"/>
    </contour>
    <contour>
      <point x="314" y="-10"/>
      <point x="331" y="4"/>
      <point x="331" y="22" type="curve"/>
      <point x="331" y="41"/>
      <point x="314" y="55"/>
      <point x="289" y="55" type="curve"/>
      <point x="266" y="55"/>
      <point x="248" y="41"/>
      <point x="248" y="22" type="curve"/>
      <point x="248" y="4"/>
      <point x="266" y="-10"/>
      <point x="289" y="-10" type="curve"/>
    </contour>
  </outline>
</glyph>
<glyph name="Euro" format="1">
  <advance width="531"/>
  <unicode hex="20AC"/>
  <outline>
    <contour>
      <point x="399" y="-11"/>
      <point x="455" y="27"/>
      <point x="495" y="71" type="curve"/>
      <point x="479" y="88" type="line"/>
      <point x="439" y="45"/>
      <point x="393" y="12"/>
      <point x="310" y="12" type="curve" smooth="yes"/>
      <point x="201" y="12"/>
      <point x="115" y="101"/>
      <point x="115" y="235" type="curve" smooth="yes"/>
      <point x="115" y="369"/>
      <point x="202" y="457"/>
      <point x="304" y="457" type="curve" smooth="yes"/>
      <point x="391" y="457"/>
      <point x="441" y="416"/>
      <point x="483" y="335" type="curve"/>
      <point x="495" y="337" type="line"/>
      <point x="496" y="470" type="line"/>
      <point x="473" y="470" type="line"/>
      <point x="472" y="369" type="line"/>
      <point x="484" y="364" type="line"/>
      <point x="457" y="425"/>
      <point x="400" y="480"/>
      <point x="304" y="480" type="curve" smooth="yes"/>
      <point x="194" y="480"/>
      <point x="90" y="387"/>
      <point x="90" y="235" type="curve" smooth="yes"/>
      <point x="90" y="83"/>
      <point x="191" y="-11"/>
      <point x="310" y="-11" type="curve" smooth="yes"/>
    </contour>
    <contour>
      <point x="25" y="188" type="line"/>
      <point x="25" y="166" type="line"/>
      <point x="401" y="166" type="line"/>
      <point x="401" y="188" type="line"/>
    </contour>
    <contour>
      <point x="27" y="294" type="line"/>
      <point x="27" y="272" type="line"/>
      <point x="403" y="272" type="line"/>
      <point x="403" y="294" type="line"/>
    </contour>
  </outline>
</glyph>
<glyph name="Q.alt" format="1">
  <advance width="617"/>
  <outline>
    <contour>
      <point x="893" y="-188"/>
      <point x="950" y="-165"/>
      <point x="993" y="-136" type="curve"/>
      <point x="981" y="-117" type="line"/>
      <point x="941" y="-144"/>
      <point x="885" y="-165"/>
      <point x="820" y="-165" type="curve" smooth="yes"/>
      <point x="707" y="-165"/>
      <point x="610" y="-104"/>
      <point x="475" y="61" type="curve" smooth="yes"/>
      <point x="331" y="237"/>
      <point x="241" y="253"/>
      <point x="90" y="253" type="curve" smooth="yes"/>
      <point x="64" y="253" type="line"/>
      <point x="64" y="230" type="line"/>
      <point x="90" y="230" type="line" smooth="yes"/>
      <point x="241" y="230"/>
      <point x="319" y="213"/>
      <point x="448" y="55" type="curve" smooth="yes"/>
      <point x="594" y="-123"/>
      <point x="697" y="-188"/>
      <point x="820" y="-188" type="curve" smooth="yes"/>
    </contour>
    <contour>
      <point x="441" y="-10"/>
      <point x="556" y="89"/>
      <point x="556" y="260" type="curve"/>
      <point x="556" y="431"/>
      <point x="441" y="530"/>
      <point x="303" y="530" type="curve"/>
      <point x="164" y="530"/>
      <point x="50" y="431"/>
      <point x="50" y="260" type="curve"/>
      <point x="50" y="89"/>
      <point x="164" y="-10"/>
      <point x="303" y="-10" type="curve"/>
    </contour>
    <contour>
      <point x="174" y="14"/>
      <point x="74" y="107"/>
      <point x="74" y="260" type="curve"/>
      <point x="74" y="413"/>
      <point x="174" y="506"/>
      <point x="303" y="506" type="curve"/>
      <point x="431" y="506"/>
      <point x="532" y="413"/>
      <point x="532" y="260" type="curve"/>
      <point x="532" y="107"/>
      <point x="431" y="14"/>
      <point x="303" y="14" type="curve"/>
    </contour>
    <contour>
      <point x="301" y="530" type="move" name="top"/>
    </contour>
    <contour>
      <point x="301" y="-10" type="move" name="bottom"/>
    </contour>
  </outline>
</glyph>
<glyph name="a.alt2" format="1">
  <advance width="485"/>
  <outline>
    <contour>
      <point x="280" y="-10"/>
      <point x="335" y="31"/>
      <point x="372" y="67" type="curve"/>
      <point x="372" y="94" type="line"/>
      <point x="330" y="52"/>
      <point x="280" y="14"/>
      <point x="211" y="13" type="curve" smooth="yes"/>
      <point x="133" y="12"/>
      <point x="70" y="72"/>
      <point x="70" y="171" type="curve" smooth="yes"/>
      <point x="70" y="272"/>
      <point x="140" y="345"/>
      <point x="223" y="345" type="curve" smooth="yes"/>
      <point x="290" y="345"/>
      <point x="338" y="311"/>
      <point x="379" y="268" type="curve"/>
      <point x="379" y="291" type="line"/>
      <point x="338" y="333"/>
      <point x="290" y="367"/>
      <point x="223" y="367" type="curve" smooth="yes"/>
      <point x="129" y="367"/>
      <point x="45" y="290"/>
      <point x="45" y="170" type="curve" smooth="yes"/>
      <point x="45" y="59"/>
      <point x="120" y="-10"/>
      <point x="211" y="-10" type="curve" smooth="yes"/>
    </contour>
    <contour>
      <point x="431" y="-10"/>
      <point x="445" y="-5"/>
      <point x="455" y="2" type="curve"/>
      <point x="449" y="24" type="line"/>
      <point x="442" y="18"/>
      <point x="429" y="14"/>
      <point x="416" y="14" type="curve" smooth="yes"/>
      <point x="396" y="14"/>
      <point x="383" y="29"/>
      <point x="383" y="68" type="curve" smooth="yes"/>
      <point x="383" y="357" type="line"/>
      <point x="359" y="352" type="line"/>
      <point x="359" y="68" type="line" smooth="yes"/>
      <point x="359" y="18"/>
      <point x="378" y="-10"/>
      <point x="415" y="-10" type="curve" smooth="yes"/>
    </contour>
    <contour>
      <point x="448" y="-2" type="move" name="ogonek"/>
    </contour>
    <contour>
      <point x="214" y="-10" type="move" name="bottom"/>
    </contour>
    <contour>
      <point x="214" y="367" type="move" name="top"/>
    </contour>
  </outline>
</glyph>
<glyph name="f.alt" format="1">
  <advance width="287"/>
  <outline>
    <contour>
      <point x="57" y="426"/>
      <point x="81" y="387"/>
      <point x="117" y="348" type="curve"/>
      <point x="117" y="0" type="line"/>
      <point x="142" y="0" type="line"/>
      <point x="142" y="348" type="line"/>
      <point x="106" y="391"/>
      <point x="82" y="427"/>
      <point x="82" y="463" type="curve" smooth="yes"/>
      <point x="82" y="504"/>
      <point x="121" y="532"/>
      <point x="169" y="532" type="curve" smooth="yes"/>
      <point x="217" y="532"/>
      <point x="256" y="519"/>
      <point x="286" y="503" type="curve"/>
      <point x="297" y="523" type="line"/>
      <point x="264" y="540"/>
      <point x="219" y="555"/>
      <point x="170" y="555" type="curve" smooth="yes"/>
      <point x="105" y="555"/>
      <point x="57" y="517"/>
      <point x="57" y="463" type="curve" smooth="yes"/>
    </contour>
    <contour>
      <point x="25" y="357" type="line"/>
      <point x="25" y="334" type="line"/>
      <point x="251" y="334" type="line"/>
      <point x="251" y="357" type="line"/>
    </contour>
    <contour>
      <point x="25" y="0" type="line"/>
      <point x="239" y="0" type="line"/>
      <point x="239" y="23" type="line"/>
      <point x="25" y="23" type="line"/>
    </contour>
    <contour>
      <point x="109" y="357" type="move" name="top"/>
    </contour>
    <contour>
      <point x="109" y="0" type="move" name="bottom"/>
    </contour>
  </outline>
</glyph>
<glyph name="g.alt" format="1">
  <advance width="469"/>
  <outline>
    <contour>
      <point x="324" y="-190"/>
      <point x="384" y="-129"/>
      <point x="384" y="-32" type="curve" smooth="yes"/>
      <point x="384" y="344" type="line"/>
      <point x="359" y="339" type="line"/>
      <point x="359" y="-33" type="line" smooth="yes"/>
      <point x="359" y="-121"/>
      <point x="307" y="-167"/>
      <point x="231" y="-167" type="curve" smooth="yes"/>
      <point x="174" y="-167"/>
      <point x="128" y="-147"/>
      <point x="77" y="-123" type="curve"/>
      <point x="70" y="-145" type="line"/>
      <point x="121" y="-169"/>
      <point x="168" y="-190"/>
      <point x="230" y="-190" type="curve" smooth="yes"/>
    </contour>
    <contour>
      <point x="280" y="-10"/>
      <point x="335" y="31"/>
      <point x="372" y="67" type="curve"/>
      <point x="372" y="94" type="line"/>
      <point x="330" y="52"/>
      <point x="280" y="14"/>
      <point x="211" y="13" type="curve" smooth="yes"/>
      <point x="133" y="12"/>
      <point x="70" y="72"/>
      <point x="70" y="171" type="curve" smooth="yes"/>
      <point x="70" y="272"/>
      <point x="140" y="345"/>
      <point x="223" y="345" type="curve" smooth="yes"/>
      <point x="290" y="345"/>
      <point x="338" y="311"/>
      <point x="379" y="268" type="curve"/>
      <point x="379" y="291" type="line"/>
      <point x="338" y="333"/>
      <point x="290" y="367"/>
      <point x="223" y="367" type="curve" smooth="yes"/>
      <point x="129" y="367"/>
      <point x="45" y="290"/>
      <point x="45" y="170" type="curve" smooth="yes"/>
      <point x="45" y="59"/>
      <point x="120" y="-10"/>
      <point x="211" y="-10" type="curve" smooth="yes"/>
    </contour>
    <contour>
      <point x="222" y="387" type="move" name="top"/>
    </contour>
    <contour>
      <point x="222" y="-210" type="move" name="bottom"/>
    </contour>
  </outline>
</glyph>
<glyph name="k.alt" format="1">
  <advance width="489"/>
  <outline>
    <contour>
      <point x="402" y="348" type="line"/>
      <point x="370" y="348" type="line"/>
      <point x="127" y="112" type="line"/>
      <point x="127" y="83" type="line"/>
    </contour>
    <contour>
      <point x="212" y="0" type="line"/>
      <point x="212" y="23" type="line"/>
      <point x="20" y="23" type="line"/>
      <point x="20" y="0" type="line"/>
    </contour>
    <contour>
      <point x="137" y="0" type="line"/>
      <point x="137" y="520" type="line"/>
      <point x="112" y="520" type="line"/>
      <point x="112" y="0" type="line"/>
    </contour>
    <contour>
      <point x="479" y="0" type="line"/>
      <point x="479" y="23" type="line"/>
      <point x="293" y="23" type="line"/>
      <point x="293" y="0" type="line"/>
    </contour>
    <contour>
      <point x="427" y="6" type="line"/>
      <point x="240" y="206" type="line"/>
      <point x="226" y="188" type="line"/>
      <point x="397" y="6" type="line"/>
    </contour>
    <contour>
      <point x="137" y="497" type="line"/>
      <point x="137" y="520" type="line"/>
      <point x="20" y="520" type="line"/>
      <point x="20" y="497" type="line"/>
    </contour>
    <contour>
      <point x="449" y="334" type="line"/>
      <point x="449" y="357" type="line"/>
      <point x="271" y="357" type="line"/>
      <point x="271" y="334" type="line"/>
    </contour>
    <contour>
      <point x="266" y="367" type="move" name="top"/>
    </contour>
    <contour>
      <point x="266" y="0" type="move" name="bottom"/>
    </contour>
  </outline>
</glyph>
<glyph name="seven.alt" format="1">
  <advance width="432"/>
  <outline>
    <contour>
      <point x="383" y="433" type="line" smooth="yes"/>
      <point x="383" y="336"/>
      <point x="337" y="300"/>
      <point x="248" y="242" type="curve" smooth="yes"/>
      <point x="154" y="180"/>
      <point x="112" y="116"/>
      <point x="112" y="0" type="curve"/>
      <point x="137" y="0" type="line"/>
      <point x="137" y="98"/>
      <point x="164" y="159"/>
      <point x="258" y="220" type="curve" smooth="yes"/>
      <point x="352" y="281"/>
      <point x="407" y="327"/>
      <point x="407" y="436" type="curve" smooth="yes"/>
      <point x="407" y="450" type="line"/>
      <point x="383" y="450" type="line"/>
    </contour>
    <contour>
      <point x="35" y="467" type="line"/>
      <point x="35" y="331" type="line"/>
      <point x="59" y="331" type="line"/>
      <point x="59" y="444" type="line"/>
      <point x="407" y="444" type="line"/>
      <point x="407" y="467" type="line"/>
    </contour>
  </outline>
</glyph>
<glyph name="t.alt" format="1">
  <advance width="340"/>
  <outline>
    <contour>
      <point x="275" y="357" type="line"/>
      <point x="35" y="357" type="line"/>
      <point x="35" y="334" type="line"/>
      <point x="275" y="334" type="line"/>
    </contour>
    <contour>
      <point x="286" y="35" type="line"/>
      <point x="259" y="22"/>
      <point x="235" y="13"/>
      <point x="198" y="13" type="curve" smooth="yes"/>
      <point x="153" y="13"/>
      <point x="108" y="46"/>
      <point x="108" y="118" type="curve" smooth="yes"/>
      <point x="108" y="190"/>
      <point x="136" y="284"/>
      <point x="151" y="340" type="curve"/>
      <point x="152" y="347" type="line"/>
      <point x="152" y="456" type="line"/>
      <point x="127" y="456" type="line"/>
      <point x="127" y="348" type="line"/>
      <point x="128" y="342" type="line"/>
      <point x="112" y="284"/>
      <point x="83" y="191"/>
      <point x="83" y="118" type="curve" smooth="yes"/>
      <point x="83" y="32"/>
      <point x="136" y="-10"/>
      <point x="199" y="-10" type="curve" smooth="yes"/>
      <point x="235" y="-10"/>
      <point x="266" y="-1"/>
      <point x="295" y="15" type="curve"/>
    </contour>
    <contour>
      <point x="201" y="-10" type="move" name="bottom"/>
    </contour>
    <contour>
      <point x="161" y="456" type="move" name="top"/>
    </contour>
    <contour>
      <point x="254" y="419" type="move" name="topright"/>
    </contour>
    <contour>
      <point x="161" y="179" type="move" name="center"/>
    </contour>
  </outline>
</glyph>
<glyph name="two.alt" format="1">
  <advance width="479"/>
  <outline>
    <contour>
      <point x="244" y="155" type="line" smooth="yes"/>
      <point x="329" y="221"/>
      <point x="400" y="269"/>
      <point x="400" y="346" type="curve" smooth="yes"/>
      <point x="400" y="440"/>
      <point x="312" y="480"/>
      <point x="235" y="480" type="curve" smooth="yes"/>
      <point x="151" y="480"/>
      <point x="91" y="436"/>
      <point x="40" y="383" type="curve"/>
      <point x="55" y="366" type="line"/>
      <point x="105" y="417"/>
      <point x="162" y="457"/>
      <point x="235" y="457" type="curve" smooth="yes"/>
      <point x="308" y="457"/>
      <point x="375" y="420"/>
      <point x="375" y="347" type="curve" smooth="yes"/>
      <point x="375" y="282"/>
      <point x="319" y="240"/>
      <point x="232" y="174" type="curve" smooth="yes"/>
      <point x="35" y="23" type="line"/>
      <point x="57" y="11" type="line"/>
    </contour>
    <contour>
      <point x="424" y="0" type="line"/>
      <point x="424" y="136" type="line"/>
      <point x="400" y="136" type="line"/>
      <point x="400" y="23" type="line"/>
      <point x="36" y="23" type="line"/>
      <point x="36" y="0" type="line"/>
    </contour>
  </outline>
</glyph>
<glyph name="x.alt" format="1">
  <advance width="471"/>
  <outline>
    <contour>
      <point x="419" y="9" type="line"/>
      <point x="244" y="189" type="line"/>
      <point x="239" y="189" type="line"/>
      <point x="85" y="348" type="line"/>
      <point x="52" y="348" type="line"/>
      <point x="229" y="168" type="line"/>
      <point x="234" y="168" type="line"/>
      <point x="386" y="9" type="line"/>
    </contour>
    <contour>
      <point x="193" y="0" type="line"/>
      <point x="193" y="23" type="line"/>
      <point x="5" y="23" type="line"/>
      <point x="5" y="0" type="line"/>
    </contour>
    <contour>
      <point x="466" y="0" type="line"/>
      <point x="466" y="23" type="line"/>
      <point x="278" y="23" type="line"/>
      <point x="278" y="0" type="line"/>
    </contour>
    <contour>
      <point x="85" y="9" type="line"/>
      <point x="239" y="168" type="line"/>
      <point x="244" y="168" type="line"/>
      <point x="419" y="348" type="line"/>
      <point x="386" y="348" type="line"/>
      <point x="234" y="189" type="line"/>
      <point x="229" y="189" type="line"/>
      <point x="52" y="9" type="line"/>
    </contour>
    <contour>
      <point x="193" y="334" type="line"/>
      <point x="193" y="357" type="line"/>
      <point x="5" y="357" type="line"/>
      <point x="5" y="334" type="line"/>
    </contour>
    <contour>
      <point x="466" y="334" type="line"/>
      <point x="466" y="357" type="line"/>
      <point x="278" y="357" type="line"/>
      <point x="278" y="334" type="line"/>
    </contour>
    <contour>
      <point x="237" y="357" type="move" name="top"/>
    </contour>
    <contour>
      <point x="237" y="0" type="move" name="bottom"/>
    </contour>
  </outline>
</glyph>
